/* XPM */
static char *_3100_df07b17af2076a3ddc8de68b2dddd4399db35593e717fdac1414b6d03a97edac[] = {
/* columns rows colors chars-per-pixel */
"32 32 135 2 ",
"   c #35C7BF",
".  c #3EECE8",
"X  c #5BCECA",
"o  c #43D4CD",
"O  c #4DD3CC",
"+  c #4EDFCD",
"@  c #52D3C2",
"#  c #58D1C4",
"$  c #58D5CE",
"%  c #4DD8D4",
"&  c #59D9D6",
"*  c #55DFD9",
"=  c #5EDCDA",
"-  c #7FDEC2",
";  c #60D9D5",
":  c #6ADBD6",
">  c #63DCDB",
",  c #6CDCD9",
"<  c #77D9D2",
"1  c #78DBD6",
"2  c #53E2D1",
"3  c #5CE3D5",
"4  c #53E4D8",
"5  c #6FE9D7",
"6  c #68E5DB",
"7  c #6EEEDE",
"8  c #74E5D4",
"9  c #77E8D7",
"0  c #75E2DE",
"q  c #7EE6DB",
"w  c #77E8DF",
"e  c #7EEDDA",
"r  c #56DEE1",
"t  c #5FDFE0",
"y  c #4FEDEF",
"u  c #55EFED",
"i  c #5DEEEC",
"p  c #50F1E9",
"a  c #5DF3EA",
"s  c #53EEF1",
"d  c #5AF1F0",
"f  c #66E2E1",
"g  c #6EE5E7",
"h  c #64EDEA",
"j  c #6AEEEC",
"k  c #70E4E1",
"l  c #7BE3E1",
"z  c #75ECE4",
"x  c #7BEBE4",
"c  c #74EEEC",
"v  c #7BEEEB",
"b  c #65F2E7",
"n  c #6BF0E5",
"m  c #63F2EB",
"M  c #6BF4EC",
"N  c #7AF0E4",
"B  c #74F4ED",
"V  c #7BF6EC",
"C  c #74F8EC",
"Z  c #7BF8ED",
"A  c #7AEEF3",
"S  c #66F0F2",
"D  c #6DF1F2",
"F  c #75F2F2",
"G  c #7DF2F2",
"H  c #82DFDD",
"J  c #80E7D5",
"K  c #8CEAD4",
"L  c #81E0DC",
"P  c #83EBDD",
"I  c #8BEDDD",
"U  c #9AE9D1",
"Y  c #97EEDB",
"T  c #84F3DF",
"R  c #93F1DE",
"E  c #80E0E4",
"W  c #89E6E1",
"Q  c #81EFE4",
"!  c #83EDEC",
"~  c #8DEEEC",
"^  c #9BE7E6",
"/  c #9CEAE4",
"(  c #94EEEC",
")  c #8CF3E5",
"_  c #83F5ED",
"`  c #8BF4ED",
"'  c #85F9EE",
"]  c #8DF9ED",
"[  c #92F5E6",
"{  c #9CF4E5",
"}  c #93F2ED",
"|  c #9BF2ED",
" . c #94F9EE",
".. c #9CFAEE",
"X. c #83F3F2",
"o. c #8CF4F4",
"O. c #86F7F8",
"+. c #8EF6F9",
"@. c #93F4F4",
"#. c #9AF5F5",
"$. c #95FAF1",
"%. c #9CFBF2",
"&. c #94F3F9",
"*. c #B1EFEE",
"=. c #ADF4E7",
"-. c #AEF9E7",
";. c #A3F3EE",
":. c #ABF2EE",
">. c #A3FBEE",
",. c #ABFCEF",
"<. c #B2FBE6",
"1. c #B2F3EE",
"2. c #BFF1EF",
"3. c #B3FDEF",
"4. c #BCFEEF",
"5. c #A3F5F5",
"6. c #A3FCF1",
"7. c #ACFCF1",
"8. c #A1F6F8",
"9. c #ADF7F8",
"0. c #A5F8FA",
"q. c #ABF9FA",
"w. c #B3F4F2",
"e. c #BEF5F3",
"r. c #B3FDF1",
"t. c #BAFEF1",
"y. c #B2F7F8",
"u. c #BAFDFE",
"i. c #C2F7EA",
"p. c #C2FDEE",
"a. c #C3FEF2",
"s. c #CBFFF2",
"d. c #C0FFFF",
"f. c #D3FFF3",
"g. c None",
/* pixels */
"g.g.g.g.g.g.g.g.g.g.g.g.g.g.'  .,.>.g.g.g.g.g.g.g.g.g.g.g.g.g.g.",
"g.g.g.g.g.g.g.g.g.g.g.t.;.;. .%.3.,.D s 7.g.g.g.g.g.g.g.g.g.g.g.",
"g.g.g.g.g.g.g.g.g.} %.%.| (  .>.7.%.$.$.%.%.7.g.g.g.g.g.g.g.g.g.",
"g.g.g.g.g.g.g.g.t.3.u i ;.| j c &.o.4.s.o.X.7.4.6.g.g.g.g.g.g.g.",
"g.g.g.g.g.g.V ..4.3.d S 1.;.c c #.&.t.a.%.&.r.4.>.6.g.g.g.g.g.g.",
"g.g.g.g.g. .] >.r.7.M F | | c v &.@.>.,.o.o.,.3.>.>.7.g.g.g.g.g.",
"g.g.g.g.g.v ' o.#.#.:.;.`  .` ( V M  ...' B >.t.} } 7.6.g.g.g.g.",
"g.g.g.g.} ( F G 8.8.:.| ] 6.#.| ' C >.,.} C ,.a.| ( ,.>.g.g.g.g.",
"g.g.g._ | | M F #.#.;.( ` %.} ( ' C ..>.' C 6.a.} ! ....G g.g.g.",
"g.g.g.~ B } 4.>.V o.t.>.:.| j F r.t.....7.a.' b } | ..t.6.g.g.g.",
"g.g.;.~ M  .s.3.V  .t.,.1.;.S D t.a.6.>.t.s. .b ( | ;.t.r.r.g.g.",
"g.g.;.! p ' f.,.b ' a.t.*.5.y u a.s.,.6.t.s. .V ~ ` >.t.r.3.g.g.",
"g.g.>.>. ...]  .6.>.` } v v 6.%.' @.$.' } | ` F ~ ;.....' X.g.g.",
"g. .,.3.s.t.M $.f.t.v ` X.X.f.s.X.+.' ' @.@.@.O.| e...6.@.A ..g.",
"g... .7.t.{ ..[ ..| W 5.% o a.s.= > X.n $ l o.r l ^ t.<.| &. .g.",
"g.] } %.| @ ] ) J 8 x : ; z ;.P f ! N 2 x ; k 4 0 # | P w +.` g.",
"g.` :.$., # 6 ,.- ,.M 3 s./ g = u.u.Y { d.5.8 P ) K = = x ] ' g.",
"g.~ w.~ O : 3 { U R b 3 e.L > l 0.u.R P u.~ 6 7 I <.1   ;.>.] g.",
"g.} y., & 8.6 9 i.P 4 z < 1 ( ! , H >.5 : E _ + 9 { $.o ) 6.] g.",
"g.g.m c y.+.] =.~ ( ,.a.x z 0.9.=.=.t.>./ a.,.) >.4.7.7...] g.g.",
"g.g.j F u.o...3.~ ! 6.7.%.$.8.0.s.s.a.7.t.s.,.%.r.s.>.>.,...g.g.",
"g.g.a F y.o.` >.v j Z ] ' ' @.#.t.a.a.3.t.s.1...,.f. .V ....g.g.",
"g.g.g.%.;.>.h v | ..r.6. ...r.r.$.;.....>.,.o.V >.] o.#.o.g.g.g.",
"g.g.g.] ,.,.i v *.1.f.t.} ,.a.a.$.6.]  .>...A G  .M o.y.X.g.g.g.",
"g.g.g.g.t.6.. h *.:.f.t.V ' a.t.,.3.C B 7.7.F h V a G #.g.g.g.g.",
"g.g.g.g.,...v v ..>.>.>...>.t.3.>.r.>.>.;.` G X. .[  .%.g.g.g.g.",
"g.g.g.g.g.5.i.;.[ >._ ] a.p.r.,.6.,.a.s.;.! 8.y.t.4.4.g.g.g.g.g.",
"g.g.g.g.g.g.*.| >.,. ...4.a.s.t.V _ ..7.| ~ #.9.7.,.g.g.g.g.g.g.",
"g.g.g.g.g.g.g.;.@.@. ...:.w...#.' ' ........#.5.7.g.g.g.g.g.g.g.",
"g.g.g.g.g.g.g.g.g.#.] ..:.;.g h a.s.t.a.,.,.@.g.g.g.g.g.g.g.g.g.",
"g.g.g.g.g.g.g.g.g.g.g. .1.:.h i 4.s.,.t.,.7.g.g.g.g.g.g.g.g.g.g.",
"g.g.g.g.g.g.g.g.g.g.g.g.g.g.m a 4.a.g.g.g.g.g.g.g.g.g.g.g.g.g.g."
};
