/* XPM */
static char *_2631_88fcf48a1ce4d0bd41ca427f265d0b4203e7eb28cd2f6a1cc1ca8f1de76ab0b5[] = {
/* columns rows colors chars-per-pixel */
"16 16 182 2 ",
"   c #4FD3CE",
".  c #5AD6CF",
"X  c #6BDEDF",
"o  c #65E3D7",
"O  c #66E9DE",
"+  c #7BE5D5",
"@  c #7EEBD8",
"#  c #69EEEB",
"$  c #6DEEEB",
"%  c #75E6E1",
"&  c #76E6E3",
"*  c #73E7E6",
"=  c #7AE7E3",
"-  c #74EEE4",
";  c #7BEFE2",
":  c #76EEEB",
">  c #79EAE9",
",  c #7FECEB",
"<  c #78EDEC",
"1  c #78F4ED",
"2  c #7EF6EC",
"3  c #7EF6ED",
"4  c #64F0F0",
"5  c #6FF2F1",
"6  c #72F1F0",
"7  c #7AF3F2",
"8  c #7DF2F2",
"9  c #7EF2F3",
"0  c #80E4DD",
"q  c #8DE3DE",
"w  c #94F0DA",
"e  c #85EAE2",
"r  c #80EBE9",
"t  c #87EBEB",
"y  c #82EDEB",
"u  c #80EFEB",
"i  c #82EFEC",
"p  c #8FEBED",
"a  c #89EFEC",
"s  c #98EEE3",
"d  c #97ECEA",
"f  c #86F0E3",
"g  c #86F1E4",
"h  c #8AF1E5",
"j  c #8FF3E6",
"k  c #86F1EE",
"l  c #81F5EC",
"z  c #80F7ED",
"x  c #81F7ED",
"c  c #82F5EF",
"v  c #89F2EF",
"b  c #88F3EF",
"n  c #8CF2EC",
"m  c #8EF2EC",
"M  c #88F6ED",
"N  c #8CF4ED",
"B  c #86FAEC",
"V  c #96F3E5",
"C  c #96F4E7",
"Z  c #9AF1E5",
"A  c #98F3E4",
"S  c #98F2E6",
"D  c #9EF1E6",
"F  c #92F1EC",
"G  c #92F3EC",
"H  c #93F1EE",
"J  c #95F0ED",
"K  c #97F1ED",
"L  c #94F3EE",
"P  c #95F4EF",
"I  c #98F0E9",
"U  c #9FF5E8",
"Y  c #9FF7E8",
"T  c #99F3ED",
"R  c #9DF1EF",
"E  c #9EF0EE",
"W  c #9FF1EF",
"Q  c #99F6EE",
"!  c #98F6EF",
"~  c #93F9ED",
"^  c #90F8EE",
"/  c #91FAEE",
"(  c #92FAEE",
")  c #94F9EC",
"_  c #94F9ED",
"`  c #96F9ED",
"'  c #97FAED",
"]  c #97FBEE",
"[  c #99F9EE",
"{  c #9BF9EF",
"}  c #99FAEF",
"|  c #99FBEF",
" . c #9DFAED",
".. c #9DF9EF",
"X. c #9DFAEE",
"o. c #9EFBEE",
"O. c #9FFAEF",
"+. c #9EFBEF",
"@. c #94EFF1",
"#. c #87F4F0",
"$. c #87F2F4",
"%. c #89F3F3",
"&. c #88F4F3",
"*. c #8FF5F1",
"=. c #8EF3F5",
"-. c #93F5F1",
";. c #92F7F1",
":. c #95F5F3",
">. c #94F6F2",
",. c #94F6F3",
"<. c #9AF1F0",
"1. c #98F4F3",
"2. c #98F6F2",
"3. c #92F9F1",
"4. c #91FDF1",
"5. c #99F9F1",
"6. c #9AFAF0",
"7. c #9CF9F1",
"8. c #9FF8F3",
"9. c #9EF9F3",
"0. c #99FCF0",
"q. c #9CFCF1",
"w. c #A4F4E9",
"e. c #A6F2ED",
"r. c #A5F1EE",
"t. c #A2F4EF",
"y. c #A5F4EE",
"u. c #A8F2EC",
"i. c #ABF4EE",
"p. c #AAF7EF",
"a. c #ACF5EE",
"s. c #A3FAEE",
"d. c #A2FAEF",
"f. c #A5F9EF",
"g. c #A5FBEF",
"h. c #A0FCEF",
"j. c #A8FBEF",
"k. c #A8FCEE",
"l. c #ADFCEF",
"z. c #ACFDEF",
"x. c #AEFCEF",
"c. c #AFFCEF",
"v. c #B6FFEF",
"b. c #A1F4F6",
"n. c #A7FBF1",
"m. c #A5FBF2",
"M. c #A2FCF0",
"N. c #A5FCF0",
"B. c #A6FFF2",
"V. c #A8FBF1",
"C. c #ABFCF0",
"Z. c #AAFCF1",
"A. c #A9FDF2",
"S. c #AAFEF2",
"D. c #AEFCF0",
"F. c #AEFCF1",
"G. c #AFFFF3",
"H. c #A3F5F8",
"J. c #A3F9FA",
"K. c #A4F9F8",
"L. c #B0FBF0",
"P. c #B3FDF0",
"I. c #B2FDF1",
"U. c #B2FDF2",
"Y. c #B2FEF2",
"T. c #B4FCF0",
"R. c #B4FEF0",
"E. c #B9FDF0",
"W. c #BAFDF0",
"Q. c #BBFDF0",
"!. c #BAFDF1",
"~. c #B9FEF1",
"^. c #BBFFF0",
"/. c #BAFDF2",
"(. c #B9FEF2",
"). c #BFFFF0",
"_. c #BFFFF2",
"`. c #C0FFF0",
"'. c #C0FFF2",
"]. c #C4FFF2",
"[. c #C6FFF3",
"{. c None",
/* pixels */
"{.{.{.{.{.{.t.o.N.5 {.{.{.{.{.{.",
"{.{.{.{.s.c K N 9.m.8.F.{.{.{.{.",
"{.{.{.' C.6 H < =.I.:.n.k.{.{.{.",
"{.{.y 9 H.R ^ T 1 ( z x.y...{.{.",
"{.{.m ;.>.p.Q b | M.h.` F O.5.{.",
"{.a x v.B !.W 4 (.R._.l i L.^.{.",
"{.j.S.0.Z.L u V.*.M G &.<.U.,.{.",
"~ A.D g A = % w., - & * 0 s v 3.",
"P d   + w O q X @.V t o @ . ; B.",
"{.r > C Z h e p u.U I f Y S j {.",
"{.7 J.6.k q.4.K.[.'.].Y.~.G.7.{.",
"{.^ [ $ r.D.] T.d._ g.#.2 %.$.{.",
"{.{. .: i.P.+.W.l.X.! 8 3 -.{.{.",
"{.{.{.e.) ` `.E./ c.J b./.{.{.{.",
"{.{.{.{.2.{ a.n } z.f.1.{.{.{.{.",
"{.{.{.{.{.{.E # Q.).{.{.{.{.{.{."
};
