/* XPM */
static char *_9861_e2dc9ca508c2f9df1e7fbb0ddc2d3e1a91c178a1b305a6762ef406101a66998a[] = {
/* columns rows colors chars-per-pixel */
"64 64 207 2 ",
"   c #2DCBC4",
".  c #35CFC0",
"X  c #3DCDC6",
"o  c #3ECFC8",
"O  c #27D2C2",
"+  c #25DACB",
"@  c #2DDCCC",
"#  c #35D1C9",
"$  c #3DD4CC",
"%  c #35DCCB",
"&  c #39DAC8",
"*  c #23D3D3",
"=  c #37D4D2",
"-  c #43C7C2",
";  c #43CAC7",
":  c #4DCDC6",
">  c #46CFCA",
",  c #52CCC3",
"<  c #5DCFC6",
"1  c #53CEC9",
"2  c #5ECCC8",
"3  c #42DDC5",
"4  c #49D9C7",
"5  c #44D6CB",
"6  c #4BD6CF",
"7  c #43DCC9",
"8  c #4CDCCC",
"9  c #5ED3C6",
"0  c #5DD4CE",
"q  c #50D9CD",
"w  c #43D4D4",
"e  c #4ED6D3",
"r  c #41DAD5",
"t  c #4BDDD2",
"y  c #49DAD9",
"u  c #43D9DA",
"i  c #53DCD4",
"p  c #5CDBD2",
"a  c #54DCDA",
"s  c #5CDCDA",
"d  c #56D4D4",
"f  c #66CDC4",
"g  c #60D1C3",
"h  c #67D6CF",
"j  c #64DFCE",
"k  c #6BD2C9",
"l  c #62D5D2",
"z  c #62DCD5",
"x  c #6CDBD6",
"c  c #65DEDD",
"v  c #68DEDA",
"b  c #75DAD5",
"n  c #78DBDD",
"m  c #4CE2CC",
"M  c #59E3CC",
"N  c #4AE1D2",
"B  c #43E4D1",
"V  c #53E3D1",
"C  c #59E5D0",
"Z  c #58E8D2",
"A  c #51E0DF",
"S  c #5DE3DD",
"D  c #63E5CF",
"F  c #73E6CB",
"G  c #79E6CE",
"H  c #71E9CF",
"J  c #61E5D0",
"K  c #6BE6D1",
"L  c #64E5D8",
"P  c #6BE4DA",
"I  c #63E8DC",
"U  c #6EEBDD",
"Y  c #75E5D2",
"T  c #78E2D0",
"R  c #75E8D3",
"E  c #7CEAD3",
"W  c #73E5DB",
"Q  c #7CE3DE",
"!  c #74EBDB",
"~  c #7DECDC",
"^  c #7CF0DF",
"/  c #71DEE0",
"(  c #78DFE0",
")  c #4DEEEC",
"_  c #55EEEB",
"`  c #5AEEEB",
"'  c #5DF0ED",
"]  c #53F1EA",
"[  c #54EEF1",
"{  c #5CF1F1",
"}  c #63E3E2",
"|  c #63EEEB",
" . c #6BEEEB",
".. c #69E8E4",
"X. c #74E4E2",
"o. c #7AE4E4",
"O. c #74EBE1",
"+. c #7CEDE4",
"@. c #74EEEB",
"#. c #7CEEEB",
"$. c #64F1EC",
"%. c #6CF3EC",
"&. c #74F4EC",
"*. c #7CF4EC",
"=. c #73F8EF",
"-. c #7EF9EE",
";. c #64EFF0",
":. c #6FEFF0",
">. c #75EFF1",
",. c #66F1F1",
"<. c #6BF1F1",
"1. c #6FFDF4",
"2. c #73F2F1",
"3. c #7BF2F1",
"4. c #7BFFF7",
"5. c #83DCD5",
"6. c #85E2CD",
"7. c #8BE3CD",
"8. c #8CE6D2",
"9. c #87EAD0",
"0. c #8AEDD5",
"q. c #84E4DD",
"w. c #82EBDD",
"e. c #8BECDE",
"r. c #94ECD6",
"t. c #97EFDB",
"y. c #9EEEDE",
"u. c #88F0DB",
"i. c #82F2DD",
"p. c #A4ECD8",
"a. c #8CE5E4",
"s. c #83ECE4",
"d. c #8DECE3",
"f. c #83EEEC",
"g. c #8BEEEC",
"h. c #93E5E2",
"j. c #9CE6E4",
"k. c #93ECE4",
"l. c #9DEDE4",
"z. c #91E7E8",
"x. c #93EEEC",
"c. c #9BEBEC",
"v. c #8BF2E4",
"b. c #83F4ED",
"n. c #8CF4ED",
"m. c #84F8ED",
"M. c #8CF8ED",
"N. c #94F3E2",
"B. c #9AF3E2",
"V. c #94F2ED",
"C. c #9BF2EE",
"Z. c #94F9EE",
"A. c #9CFAEE",
"S. c #89EFF1",
"D. c #84F3F2",
"F. c #8CF4F3",
"G. c #85F9F1",
"H. c #8CFCF3",
"J. c #93F5F3",
"K. c #9BF5F4",
"L. c #94FCF3",
"P. c #9CFBF2",
"I. c #9FF6F9",
"U. c #9DFAF9",
"Y. c #A4E6E3",
"T. c #A8E5E1",
"R. c #A2E9E6",
"E. c #A2ECED",
"W. c #AAECE9",
"Q. c #AAEBE1",
"!. c #B8EEED",
"~. c #B7EDE7",
"^. c #ACF4E6",
"/. c #A4F3EE",
"(. c #ABF3EE",
"). c #A3FBEE",
"_. c #ABFCEF",
"`. c #B3F4E7",
"'. c #BDF5E6",
"]. c #B2F3EE",
"[. c #B9F4EC",
"{. c #B4FCEF",
"}. c #BBFBED",
"|. c #A3F6F5",
" X c #ABF6F5",
".X c #A4FBF1",
"XX c #ACFCF1",
"oX c #A1F5F8",
"OX c #ADF6F8",
"+X c #A4FBFA",
"@X c #ACFCFB",
"#X c #B2F5F4",
"$X c #BDF5F0",
"%X c #B4FDF1",
"&X c #BCFEF1",
"*X c #B4F6F8",
"=X c #B4FEFD",
"-X c #BCFDFA",
";X c #C5F4E7",
":X c #C6F5EA",
">X c #CAF7E8",
",X c #C2FDEF",
"<X c #C3FFF1",
"1X c #CAFFF2",
"2X c #CCFFFA",
"3X c #D2FFF2",
"4X c None",
/* pixels */
"4X4X4X4X4X4X4X4X4X4X4X4X4X4X4X4X4X4X4X4X4X4X4X4X4X4X4X4X4X4X4X4X4X4X4X4X4X4X4X4X4X4X4X4X4X4X4X4X4X4X4X4X4X4X4X4X4X4X4X4X4X4X4X4X",
"4X4X4X4X4X4X4X4X4X4X4X4X4X4X4X4X4X4X4X4X4X4X4X4X4X4X4X4X4XZ.Z.m..XXX_.A.4X4X4X4X4X4X4X4X4X4X4X4X4X4X4X4X4X4X4X4X4X4X4X4X4X4X4X4X",
"4X4X4X4X4X4X4X4X4X4X4X4X4X4X4X4X4X4X4X4X4X4X4X4X/./.(.C.m.A.L.M.XX%X_.A.3.2.2.$.4X4X4X4X4X4X4X4X4X4X4X4X4X4X4X4X4X4X4X4X4X4X4X4X",
"4X4X4X4X4X4X4X4X4X4X4X4X4X4X4X4X4X4X4X4X4X%XXX.X(.(. XC.M.).A.Z._.XXXXP.2.2.2.[ P.<X%X4X4X4X4X4X4X4X4X4X4X4X4X4X4X4X4X4X4X4X4X4X",
"4X4X4X4X4X4X4X4X4X4X4X4X4X4X4X4X4X4X4Xb.&X&X&XXXc.C./.x.Z.).).A.XX%XXX.X3.3.3.<.L.}.%X%X_.4X4X4X4X4X4X4X4X4X4X4X4X4X4X4X4X4X4X4X",
"4X4X4X4X4X4X4X4X4X4X4X4X4X4X4X4X4X_.C.A.M.M.M.M.g.V.V.g.n.A.).Z..X|.P.H.XX&X{.-XJ.F.L.F.P.&X%X4X4X4X4X4X4X4X4X4X4X4X4X4X4X4X4X4X",
"4X4X4X4X4X4X4X4X4X4X4X4X4X4X4X4XXX{.<X%X_ _ ` ;./././.C.%.%.@. .K.I.J.3.XX<X&X<XJ.D.J.F..X}.%X%X).4X4X4X4X4X4X4X4X4X4X4X4X4X4X4X",
"4X4X4X4X4X4X4X4X4X4X4X4X4X4XM.Z.%X%X&X.X,.;.$.2.|././.C. .@.@. .K.oXJ.D.XX&X%X}.J.F.U.J..X&X{.%X).P.4X4X4X4X4X4X4X4X4X4X4X4X4X4X",
"4X4X4X4X4X4X4X4X4X4X4X4X4XZ.Z.Z.%X%X&X_.$.,.,.2././.|.C.@.#.#.&.K.oXJ.D..X&X&X}.J.F.U.F..X}.%X%X).A.XX4X4X4X4X4X4X4X4X4X4X4X4X4X",
"4X4X4X4X4X4X4X4X4X4X4X4X*.A.A.A.%X%X{.).,.2.,.2././.(.C.@.f.3.@.K.oXL.D.XX<X&X&XL.F.I.F..X}.%X%X).A.XX).4X4X4X4X4X4X4X4X4X4X4X4X",
"4X4X4X4X4X4X4X4X4X4X4XZ.-.).A.A.%X}.}._.' ,.,.,. X].#X/.@.b.#.@.oX|.I.F.%X<X<X<XK.J.+XK..X<X{.&X).).XXXX).4X4X4X4X4X4X4X4X4X4X4X",
"4X4X4X4X4X4X4X4X4X4XA.m.m.).A.Z..XXXXXA.*.3.3.3.n.x.c.n. .@.#.@.J.U.J.F.Z.).A.A.D.D.F.D.A.{._._.A.Z.).).).XX4X4X4X4X4X4X4X4X4X4X",
"4X4X4X4X4X4X4X4X4X@.@.#.*.F.F.F.K.I.K.K.(.(.].K.*.m.V.M.f.S.V.n.&.&.%.$.M.A.M.M.-.*.&.$.Z.}.{.XXA.g.C.x.).%X.X4X4X4X4X4X4X4X4X4X",
"4X4X4X4X4X4X4X4X4Xb.g.g.*.D.3.3.oXK.U.K./.(.(.V.M.A..X).n.V.C.C.b.D.-.%.A._.)..XV.Z.M.=.A.<X%X%XC.V.C.c..X%X_.4X4X4X4X4X4X4X4X4X",
"4X4X4X4X4X4X4X4Xn.g.V.g.3.G.D.D.oX|.I.K././.(.V.M.L.).A.g.V.C.x.b.m.m.%.A.XX).A.M.M.Z.&.Z.&X%X{.C.x.C.C.).XX).).4X4X4X4X4X4X4X4X",
"4X4X4X4X4X4X4Xf.g.V.x.n.3.D.3.3.|.|.K.K././.(.V.b.Z.).A.n.V.C.J.-.m.G.&.A.XX.X).H.M.M.&.A.<X%X&XA.g.C.V.)._.).).F.4X4X4X4X4X4X4X",
"4X4X4X4X4X4X4Xb.V.V.C.C.&.*.2.3.|.|.|.K./.|.(.V.b.L.A.A.n.V.C.V.-.m.m.%.Z.XX).P.m.H.m.%.A.<X}.}.).g.x.g.A.).A.A.G.4X4X4X4X4X4X4X",
"4X4X4X4X4X4X#.f.V.c./.c. .>.<.2.|.|.I.K.c.C.C.g.m.Z.A.Z.n.V.C.V.m.m.-.=.Z.).).A.m.m.m.%.A.<X}.,XA.#.g.f.Z.A.Z.Z.G.3.4X4X4X4X4X4X",
"4X4X4X4X4X4XC.f.%.b.s.Z.XX.X%XA.2.b.&.m.%X_._.)././.(.C. .>.#.3..X%X%XXXL.).).Z..X%X%X&XM.&.+.%.b./.K.g.Z.{._.%X.X.X4X4X4X4X4X4X",
"4X4X4X4X4Xc. X#.$.m.&.Z.<X&X1X).&.M.b.M.<X&X%X)./.(. Xc.' <.<.,.%X1X&X&X).).XXA.XX<X}.1XM.$.&.] f.]./.x.V.&X%X%XXX_.%X4X4X4X4X4X",
"4X4X4X4X4XC.(.#.$.Z.m.Z.}.}.,X).*.M.m.M.&X%X%X.X/. X(.C.,.3.3.<.XX&X&X%X)..X_.A.XX&X&X&XZ.*.n.%.f.(.C.x.Z.{.%X{._.XXXX4X4X4X4X4X",
"4X4X4X4X4XC.|.#.$.M.m.Z.&X{.,XA.&.n.M.Z.&X%XXX)././.].C.;.3.<.,.%X<X&X&X.X).XXA.).<X%X<XZ.b.M.%.f. XC.g.V.}.%X%XXXXX{._.4X4X4X4X",
"4X4X4X4XC.C.(.#.' M.-.Z.&X&X,XA.&.M.b.H.&X&X{._.E.(.(.C.,.<.:.;.%X<X&X&X).).XXP.XX&X%X<XZ.m.Z.&.f.(.V.g.V.&X%X{.XX_.%X_.4X4X4X4X",
"4X4X4X4Xx.c./.@.) &.%.M.1X<X3X).$.m.&.M.<X<X&X%X#X#X[.|.) [ [ ) &X3X1X<XXX%X%X.XXX<X<X1XA.m.A.*.#.c.V.f.M.&X&X&X%X&X&X{.4X4X4X4X",
"4X4X4X4XV.C.).m.&.m.m.M.A.A.).M.m.Z.M.Z.C.A.).Z.g.g.g.b.-.D.m.-.Z.A.P.|.Z.A.A.Z.Z.).C.).m.-.F.%.@./.V.c.V.).).).A.Z.Z.Z.A.4X4X4X",
"4X4X4XZ._._._.{.}.&X1XA.$.-.&.Z.,X}.<XXX .#.f.#. .@.| @.1X3X3X<X;.;.3.D.*.*.b.&.f.f.b.f.D.S.D.,.+.].(.(./.Z.Z.V.b.2.3.>.n.4X4X4X",
"4X4X4XZ._._._._.%X%X<XA.&.Z.M.Z.&X%X&X).#.n.V.g.f.f.@.#.%X&X<X{.2.3.F.J.m.M.M.*.g.C.n.V.D.F.J.2.#.]./././.A.).).J.D.J.D.J.4X4X4X",
"4X4X4XZ.).)._._.{.{.<XP.*.A.M.Z.%X%X&X.Xb.V.x.n.f.D.*.*.&X<X&X-XD.G.U.U.b.m.M.m.n.K.V.V.F.J.J.3.f.(.)././.)._._.P.D.J.S.Z.4X4X4X",
"4X4X4XZ.A.)._._._.%X<XC.m.A.L.A.{.%X%X.Xg.V.J.K.g.s.X.#.&X<X&X<XS.f.x.c.m.-.H.m.a.z.x.K.D.F.x.#.b.(.W. X).)..X{.|.F.J.S.J.4X4X4X",
"4X4X4XZ.Z.).).).%X}.t.E n.)..Xw.T ).-Xw., e.XXz.e X   # l.<X2X`.a w e d O.H.f.N > : 6 Q U.o.e = x R.h r.XX_.{.8.a.I.K.J.Z.A.4X4X",
"4X4X).m.m.Z.A.).=X^.F M v.XXXX! m ).d.3 x OXj.: # s _ $ r.2X'.G r } @.c | *.% + P X.e   ..S.u * s.h.w f W.-X[.9.~ I.J.S.n.Z.4X4X",
"4X4Xb.n.V.V.C.b.Z.W f : S P.L.~ E Q.H K 3.n.t 5 R.+XK.C.J.C.z i c.+XU.P..X~ M e.U.+X|.c e |.! 6 K.s.g < P n.f.6 L J.m.&.-.A.4X4X",
"4X4X*.C./.E./.*.a.1 e.v & C.P.u.7.7.p.).1.+.% W -X#X!.W.J.S.u X.@XOX X+X[.0.t.%XK. X=Xc.i B.i.Z _.N.E p.o P S.6 P ).Z.*.*._.4X4X",
"4X4Xb.V.C./.C.F.W , ~.a.. N.@Xt.F F ;XXX=.+.4 s.-XR.k l o.z.a a.+X X|.+X(.G N.XXK.|.@Xc.i k.+.m ).B.R ;Xp $ j.i ! XXA.m.*.).4X4X",
"4X4Xm.c./.C./.g.s w b 0 % ~ =XN.6.6.r./.4.s.7 +.-Xl.5.c } h.s s.@X|.|.oX(.E v.XXJ.|.=Xc.6 k.! N _.B.Y <Xx.  b J R XX).M.-.).4X4X",
"4X4X4XC.c./. XX.X z n z N J ^.N.0.~.0.K &.L.B C !.*X2Xq.s W.} c OX=X=X@X%Xe.K l.+X=X*X( i A.U m XXB.H [..Xs - , s.%X).Z.-.4X4X4X",
"4X4X4XC./.(.*Xi   e. XE.Q 4 v.B.9.>X>Xm @ G.I @ 5.T.T.x z #Xz.y / c.c.n /.`.D Z a.c.( a o.M.V % l.N.K [.L.o.; + ~ &X_.Z.&.4X4X4X",
"4X4X4XC.x.C.E.> e D.F.D.b.M U N.7.{.1Xw.O W L.W p < 9 0 o.oXoXo.c l 0 l N.=XN.V 6 h s h..XU 4 & W v.j _.M.G.o.5 W ).).n.*.4X4X4X",
"4X4X4X).&.;.| f. XK.|.3.m.^./.).z.g.S.x.(.{.<X&Xs.+.O.f.+X|.I.@X`.`.^.}.&X%X%XC.B.^.[.1XXXP.^.N.Z.}.`.%XXX).%X`.V.Z.A.m.3.4X4X4X",
"4X4X4X).&.:.;.F.*X|.OXD.m._.).).J.g.g.g.XX%X%X_.M.L.L.H.oX X|. X-X1X2X&X&X&X%X.X=X2X<X,X_.L.XXL.A.,X&X&X%XA..X%X).A.).n.D.4X4X4X",
"4X4X4X4X*.:. .F. X|. XD.-.).).).V.g.g.g.A.XXXX_.M.V.Z.M.|.|.|.|.&X<X&X&X&X&X%X).XX<X&X<X_.A._.Z.A.<X&X&X_.Z.)._.A.A.).Z.4X4X4X4X",
"4X4X4X4X*.:.;.D. XK.OXD.b._.).).g.n.f.f.Z.).).).m.Z.Z.M.K.|.|.K.%X&X<X&X&X&X&X).XX<X<X<X_.)._.Z.Z.<X}.&X_.M.A.).A.A.).Z.4X4X4X4X",
"4X4X4X4X .2.;.D. X|.OXD.b._._._.n.f.#.#.M.Z.A..X-.M.Z.M.K.|.K.I.%X<X&X&X&X<X}._._.<X&X<X_.)._.A.Z.<X}.&X_.M.Z.A.).)._.Z.4X4X4X4X",
"4X4X4X4X4X ._ D. XoXOX#.&.).A.C.#. .@.| =.-.m.M.*.-.m.-.J.U.K.K.&X1X<X<X<X<X}._.{.1X<X1X}.)._.A.A.1X<X1X%X&.m.m.M.A.A.4X4X4X4X4X",
"4X4X4X4X4XZ.M.J.C.)..XZ.|  . .#.V.V.g.n.A.P.).Z.Z.).A.A.|.XX_. XZ.A._.).A.)._.A.).{._._.Z.D.D.b.A._.).N.F.F.F.F.D.D.D.4X4X4X4X4X",
"4X4X4X4X4X4XA.Z.).).{.).|  . .g.[.#XW.{.1X1X3X_.Z._.).).,X,X1X<Xb.n.).A.m.V.A.M.A.A.A.V.3.D.3.3.Z.Z.m.$.:.*X|.|.K.D.F.4X4X4X4X4X",
"4X4X4X4X4X4XZ.M._._.{.).| .. .f.].(./.(.<X&X1X_.M..X.XA.}.<X<X&XM.A._.).M.Z.A.M.C._.).A.S.D.f.3.Z.A.M.&.>. XK.oXF.D.4X4X4X4X4X4X",
"4X4X4X4X4X4Xm.M._._.{.).` | | f.].(.C.(.<X&X<XXXm.A.A.Z.&X<X<X%XZ.).{._.M.M.A.n.)._._.A.D.3.3.2.M.M.M.%.*. XK.K.F.3.4X4X4X4X4X4X",
"4X4X4X4X4X4X4Xm._.{.{.A.` | | f.].(.E.(.,X&X1XXXm.Z.A.P.&X<X<X&XA.).%X{.m.M.Z.m.)._._.A.D.3.3.2.M.M.m.$.2.|.K.J.D.4X4X4X4X4X4X4X",
"4X4X4X4X4X4X4X4X_._.%XA._ _ ) #.]././.(.<X<X1X{.&.m.M.M.&X<X<X&XA._.&XXX%.%.&.&.).{.%X.X>.2.<.,.*.&.&.] 2.|.F.J.F.4X4X4X4X4X4X4X",
"4X4X4X4X4X4X4X4X).A._.M.` ` _ O.(.^.c._.&X}.<X_.m.M.M.Z.%X,X<X%XZ.).%X_.M.Z.Z.M.C.).C.n.<.:.,.$.&.m.*.%.&.J.G.3.4X4X4X4X4X4X4X4X",
"4X4X4X4X4X4X4X4X4XXX_.C./.E.(.n.b.).).C.m.Z.Z.n.{.&X&X%X_.{._.(.A._.%XXX}.1X1X<XC.c.C.f.F.|.|.K.).{.{.{.)._.{.4X4X4X4X4X4X4X4X4X",
"4X4X4X4X4X4X4X4X4X4X).(.W.(.[.g.M.)._.A.*.Z.n.M.%X}.&X%X{.%X%XXXA._.%X)._.&X}.&XC.K.C.f.F.*XOX X_.}.{.{.).}.4X4X4X4X4X4X4X4X4X4X",
"4X4X4X4X4X4X4X4X4X4X4X(.(.(.#XV.M.).{.).M.A.Z.Z.%X&X&X%X{.%X{.XXM.).XXA._.&X&X%XC.C./.b.F.OX|.|..X{.{._.).4X4X4X4X4X4X4X4X4X4X4X",
"4X4X4X4X4X4X4X4X4X4X4X4X|.W.W.V.V._.{.).M.A.A.V.%X}.&X%X%X&X}.%XM.Z.A.Z.).%X{.%XC.C.c.n.F.#X|.|..X}.{._.).4X4X4X4X4X4X4X4X4X4X4X",
"4X4X4X4X4X4X4X4X4X4X4X4X4X(.(.V.A.{.{.).M.).).Z.&X<X<X}.&X,X<X&X-.m.L.M.A._.XXXXC.c./.f.F.#X|.|. X{.{._.4X4X4X4X4X4X4X4X4X4X4X4X",
"4X4X4X4X4X4X4X4X4X4X4X4X4X4X].n.m.A.A.V.m.A.A.Z.{.}.}.{.%X}.}._.%.%.&.&.m.Z.Z.M.Z.C.(.n.F.*X X X X{.4X4X4X4X4X4X4X4X4X4X4X4X4X4X",
"4X4X4X4X4X4X4X4X4X4X4X4X4X4X4XC.D.J.K.D.M..XP.Z.(.(. XE.#.#.f.#.Z.A.A.Z.A._._._.A.P._.).J.|.K.K.).4X4X4X4X4X4X4X4X4X4X4X4X4X4X4X",
"4X4X4X4X4X4X4X4X4X4X4X4X4X4X4X4X|.|. XK.m.).A.Z./.(.].|.@.@.@. .&X3X1X1X{.&X1X1X).).{._.J.D.F.F.4X4X4X4X4X4X4X4X4X4X4X4X4X4X4X4X",
"4X4X4X4X4X4X4X4X4X4X4X4X4X4X4X4X4X4X XK.b.A.A.V.(.(.]./.@.@.@. .%X<X&X&X_.{.&X<XC..X{.).J.x.4X4X4X4X4X4X4X4X4X4X4X4X4X4X4X4X4X4X",
"4X4X4X4X4X4X4X4X4X4X4X4X4X4X4X4X4X4X4X4X*.Z.Z.Z.(.].]./. .&. .| {.1X<X&X_.%X&X<XP.).{._.4X4X4X4X4X4X4X4X4X4X4X4X4X4X4X4X4X4X4X4X",
"4X4X4X4X4X4X4X4X4X4X4X4X4X4X4X4X4X4X4X4X4X4XM.F.(. X]./. . .| ` %X<X,X&X).XX&X}.A.).4X4X4X4X4X4X4X4X4X4X4X4X4X4X4X4X4X4X4X4X4X4X",
"4X4X4X4X4X4X4X4X4X4X4X4X4X4X4X4X4X4X4X4X4X4X4X4X4X4X].W.| $.$.` {.1X<X&X.X_.4X4X4X4X4X4X4X4X4X4X4X4X4X4X4X4X4X4X4X4X4X4X4X4X4X4X",
"4X4X4X4X4X4X4X4X4X4X4X4X4X4X4X4X4X4X4X4X4X4X4X4X4X4X4X4X4X4X%.%.%X,X4X4X4X4X4X4X4X4X4X4X4X4X4X4X4X4X4X4X4X4X4X4X4X4X4X4X4X4X4X4X"
};
